Coordinates
version=1
nRows=9
nColumns=63
inDegrees=yes

Units are S.I. units (second, meters, Newtons, ...)
If the header above contains a line with 'inDegrees', this indicates whether rotational values are in degrees (yes) or radians (no).

endheader
time	pelvis_tilt	pelvis_list	pelvis_rotation	pelvis_tx	pelvis_ty	pelvis_tz	hip_flexion_r	hip_adduction_r	hip_rotation_r	knee_angle_r	knee_angle_r_beta	ankle_angle_r	subtalar_angle_r	mtp_angle_r	hip_flexion_l	hip_adduction_l	hip_rotation_l	knee_angle_l	knee_angle_l_beta	ankle_angle_l	subtalar_angle_l	mtp_angle_l	L5_S1_Flex_Ext	L5_S1_Lat_Bending	L5_S1_axial_rotation	L4_L5_Flex_Ext	L4_L5_Lat_Bending	L4_L5_axial_rotation	L3_L4_Flex_Ext	L3_L4_Lat_Bending	L3_L4_axial_rotation	L2_L3_Flex_Ext	L2_L3_Lat_Bending	L2_L3_axial_rotation	L1_L2_Flex_Ext	L1_L2_Lat_Bending	L1_L2_axial_rotation	L1_T12_Flex_Ext	L1_T12_Lat_Bending	L1_T12_axial_rotation	Abs_r3	Abs_r2	Abs_r1	Abs_t1	Abs_t2	neck_flexion	neck_bending	neck_rotation	arm_flex_r	arm_add_r	arm_rot_r	elbow_flex_r	pro_sup_r	wrist_flex_r	wrist_dev_r	arm_flex_l	arm_add_l	arm_rot_l	elbow_flex_l	pro_sup_l	wrist_flex_l	wrist_dev_l
3.866667	-6.564210	2.192885	91.543883	0.250073	0.737429	0.715825	-0.496747	-2.858917	-4.182198	5.730448	0.100015	25.191170	-3.760970	0.000000	-1.267963	2.931442	-3.406282	1.412775	0.024658	26.523036	7.956278	0.000000	0.175838	-0.416859	-0.390799	0.326548	-0.554422	-0.415224	0.288884	-1.013550	-0.415224	0.200965	-1.013550	-0.341950	0.163283	-0.850058	-0.317525	0.100474	-0.645714	-0.293100	1.255992	-4.715589	-2.173509	0.000000	0.000000	25.508020	6.565638	-11.646203	38.827330	-6.369112	24.925296	52.490618	86.817546	13.957428	28.346453	5.466910	-17.646492	36.666323	31.107099	86.603551	-11.125295	6.134287
3.883333	-6.685068	2.270170	91.208167	0.250803	0.737383	0.716003	-0.503521	-3.010153	-4.136463	5.837690	0.101887	25.388018	-3.259423	0.000000	-1.356300	3.044630	-3.833598	1.414329	0.024685	26.490836	8.076533	0.000000	0.172965	-0.433508	-0.281052	0.321213	-0.576565	-0.298618	0.284164	-1.054031	-0.298618	0.197682	-1.054031	-0.245921	0.160615	-0.884009	-0.228355	0.098832	-0.671503	-0.210789	1.235471	-4.903926	-1.563129	0.000000	0.000000	25.318850	6.449137	-11.952436	38.579889	-6.497566	24.499200	52.788555	87.125560	13.913613	28.345665	5.758884	-17.747684	37.669464	30.874158	86.665418	-11.223685	6.026185
3.900000	-6.779851	2.349739	90.916273	0.251413	0.737379	0.716107	-0.524314	-3.136846	-4.196741	5.926190	0.103432	25.611333	-2.665088	0.000000	-1.451068	3.133175	-4.246578	1.410394	0.024616	26.465272	8.254443	0.000000	0.169233	-0.445798	-0.181934	0.314283	-0.592912	-0.193305	0.278033	-1.083914	-0.193305	0.193417	-1.083914	-0.159193	0.157150	-0.909072	-0.147822	0.096700	-0.690541	-0.136451	1.208817	-5.042959	-1.011865	0.000000	0.000000	25.141139	6.364141	-12.141240	38.329914	-6.649328	24.163129	53.080381	87.088089	13.788364	28.358734	6.134818	-17.808151	39.114698	30.546573	86.679279	-11.515171	5.835827
3.916667	-6.860508	2.427346	90.667455	0.251934	0.737418	0.716117	-0.561773	-3.243093	-4.225231	5.980660	0.104382	25.811759	-2.175380	0.000000	-1.552091	3.209030	-4.588545	1.397019	0.024383	26.424018	8.404017	0.000000	0.165516	-0.456121	-0.092155	0.307380	-0.606641	-0.097915	0.271927	-1.109012	-0.097915	0.189169	-1.109012	-0.080636	0.153698	-0.930122	-0.074876	0.094576	-0.706531	-0.069116	1.182266	-5.159731	-0.512540	0.000000	0.000000	24.979126	6.305323	-12.275015	38.029089	-6.753278	23.719095	53.349490	86.912124	13.695977	28.446160	6.536006	-17.837149	40.758815	30.195750	86.701403	-11.909990	5.663177
3.933333	-6.921267	2.504068	90.483810	0.252320	0.737505	0.716046	-0.618579	-3.323056	-4.270247	6.001258	0.104742	25.988695	-1.771924	0.000000	-1.655618	3.264884	-4.916714	1.379116	0.024070	26.392903	8.634021	0.000000	0.161391	-0.463763	-0.016846	0.299719	-0.616805	-0.017899	0.265149	-1.127593	-0.017899	0.184453	-1.127593	-0.014741	0.149867	-0.945705	-0.013688	0.092219	-0.718369	-0.012635	1.152798	-5.246179	-0.093695	0.000000	0.000000	24.833064	6.269113	-12.365795	37.707910	-6.823230	23.237287	53.576014	86.572557	13.601822	28.587918	6.926621	-17.848349	42.459035	29.844022	86.713780	-12.418825	5.502668
3.950000	-6.960577	2.577416	90.369092	0.252574	0.737638	0.715893	-0.693489	-3.374709	-4.367746	5.986097	0.104477	26.143592	-1.415065	0.000000	-1.756417	3.296527	-5.343240	1.361297	0.023759	26.390507	9.100173	0.000000	0.157069	-0.469021	0.043408	0.291693	-0.623798	0.046121	0.258049	-1.140377	0.046121	0.179514	-1.140377	0.037982	0.145855	-0.956427	0.035269	0.089749	-0.726513	0.032556	1.121930	-5.305656	0.241422	0.000000	0.000000	24.712250	6.245161	-12.463538	37.370679	-6.869544	22.762824	53.779927	86.004410	13.371934	28.819522	7.268744	-17.848175	44.068311	29.521188	86.731540	-13.010946	5.350423
3.966667	-6.967584	2.645357	90.331617	0.252668	0.737804	0.715649	-0.787209	-3.380604	-4.395946	5.931426	0.103523	26.222528	-1.304769	0.000000	-1.857645	3.296168	-5.576294	1.333315	0.023271	26.377245	9.427288	0.000000	0.153110	-0.470359	0.085164	0.284340	-0.625577	0.090487	0.251544	-1.143630	0.090487	0.174989	-1.143630	0.074519	0.142178	-0.959155	0.069196	0.087487	-0.728586	0.063873	1.093647	-5.320792	0.473657	0.000000	0.000000	24.614257	6.223114	-12.564640	37.038775	-6.886511	22.275532	53.935590	85.435486	13.222856	29.063615	7.521897	-17.825744	45.437675	29.247810	86.787334	-13.637440	5.185028
3.983333	-6.949114	2.711417	90.364745	0.252626	0.738004	0.715311	-0.904634	-3.350637	-4.439746	5.839073	0.101911	26.248359	-1.309347	0.000000	-1.962290	3.270045	-5.702977	1.298301	0.022660	26.360856	9.712390	0.000000	0.149397	-0.468651	0.103617	0.277444	-0.623306	0.110093	0.245444	-1.139478	0.110093	0.170745	-1.139478	0.090664	0.138730	-0.955673	0.084188	0.085365	-0.725940	0.077712	1.067125	-5.301474	0.576284	0.000000	0.000000	24.532407	6.222462	-12.638375	36.756402	-6.880412	21.921819	54.016292	84.685148	13.012573	29.303262	7.641638	-17.788825	46.443791	29.061767	86.855137	-14.239052	5.005350
4.000000	-6.895409	2.776364	90.464643	0.252429	0.738231	0.714872	-1.042990	-3.272534	-4.413561	5.721862	0.099865	26.181700	-1.555966	0.000000	-2.075150	3.209636	-5.600552	1.250229	0.021821	26.316613	9.792932	0.000000	0.146122	-0.462223	0.105943	0.271364	-0.614756	0.112564	0.240064	-1.123848	0.112564	0.167003	-1.123848	0.092700	0.135689	-0.942564	0.086078	0.083494	-0.715983	0.079457	1.043737	-5.228755	0.589221	0.000000	0.000000	24.469919	6.197500	-12.721784	36.479231	-6.880004	21.586850	54.088513	83.994582	12.890948	29.518735	7.703985	-17.735920	47.324766	28.904784	86.911770	-14.873399	4.775989
